<svg width="472" height="389" viewBox="0 0 472 389" fill="none" xmlns="http://www.w3.org/2000/svg">
<g clip-path="url(#clip0_47_19)">
<path d="M116.503 354.951L117.463 375.29L117.463 375.291C117.625 378.728 116.422 382.09 114.118 384.636C111.814 387.182 108.599 388.704 105.179 388.867L104.76 388.887L103.188 355.586L116.503 354.951Z" fill="#2F2E41"/>
<path d="M404.208 320.58C394.57 339.484 382.345 357.767 366.878 374.314C366.534 374.687 366.187 375.051 365.837 375.422L329.19 357.985C329.415 357.611 329.66 357.19 329.925 356.731C345.667 329.66 440.694 164.524 437.691 127.123C438.041 130.208 449.304 232.22 404.208 320.58Z" fill="#EEE1D6"/>
<path d="M373.948 377.678C373.435 377.971 372.909 378.258 372.379 378.535L344.888 365.454C345.272 365.18 345.72 364.856 346.235 364.491C354.657 358.413 379.702 340.178 404.208 320.58C430.543 299.519 456.261 276.89 460.081 266.089C459.305 268.566 435.2 343.857 373.948 377.678Z" fill="#EEE1D6"/>
<path d="M45.7309 388.074C69.1626 388.074 88.1578 368.983 88.1578 345.432C88.1578 321.881 69.1626 302.789 45.7309 302.789C22.2991 302.789 3.30389 321.881 3.30389 345.432C3.30389 368.983 22.2991 388.074 45.7309 388.074Z" fill="#00D1FF"/>
<path d="M62.7257 327.537H28.736C27.2341 327.539 25.7942 328.139 24.7321 329.207C23.6701 330.274 23.0727 331.721 23.071 333.231V357.632C23.0727 359.142 23.6701 360.589 24.7321 361.657C25.7941 362.724 27.2341 363.325 28.736 363.326H62.7257C64.2276 363.325 65.6676 362.724 66.7296 361.657C67.7916 360.589 68.389 359.142 68.3907 357.632V333.231C68.389 331.721 67.7916 330.274 66.7295 329.207C65.6675 328.139 64.2276 327.539 62.7257 327.537ZM62.7257 330.791C62.9286 330.791 63.1306 330.818 63.3269 330.87L45.7347 344.974L28.2454 330.841C28.4068 330.807 28.5712 330.791 28.736 330.791H62.7257ZM62.7257 360.073H28.736C28.0923 360.072 27.4752 359.815 27.0201 359.357C26.5649 358.9 26.3089 358.279 26.3082 357.632V333.45L44.7167 348.326C45.0033 348.558 45.3599 348.684 45.7278 348.685C46.0956 348.686 46.4526 348.561 46.7402 348.33L65.1535 333.567V357.632C65.1528 358.279 64.8968 358.9 64.4416 359.357C63.9865 359.815 63.3694 360.072 62.7257 360.073Z" fill="white"/>
<path d="M209.466 283.867L218.959 283.945C219.92 283.953 220.871 283.751 221.745 283.351C222.62 282.952 223.397 282.366 224.023 281.634C224.649 280.901 225.109 280.04 225.37 279.111C225.631 278.182 225.687 277.207 225.535 276.254C225.371 275.228 224.969 274.255 224.363 273.413C223.756 272.572 222.962 271.885 222.043 271.408C221.125 270.932 220.107 270.679 219.074 270.669C218.04 270.66 217.018 270.895 216.091 271.354L207.139 275.794L176.519 282.657L163.401 269.177L155.866 281.651L173.567 295.397L209.466 283.867Z" fill="#FFB8B8"/>
<path d="M207.687 382.445L196.503 384.607C188.863 360.403 180.586 337.481 180.586 319.753C169.775 331.847 156.367 338.766 140.58 340.939L142.301 314.132L155.206 307.214L174.957 298.052C176.686 297.25 178.552 296.786 180.454 296.685C184.152 296.49 187.791 297.676 190.67 300.015C193.55 302.355 195.467 305.683 196.052 309.357L207.687 382.445Z" fill="#2F2E41"/>
<path d="M154.13 337.696L149.673 341.101C147.756 342.565 145.491 343.5 143.104 343.813C140.716 344.126 138.289 343.805 136.063 342.884C123.295 333.265 114.224 336.103 106.003 350.622C96.1415 339.436 93.7086 323.28 102.509 306.566L151.334 307.647L161.228 304.62L154.13 337.696Z" fill="#2F2E41"/>
<path d="M137.87 387.79C135.072 388.655 132.061 388.503 129.363 387.361C126.666 386.218 124.454 384.158 123.116 381.542C118.728 377.657 115.026 372.096 111.815 365.333C109.511 360.372 107.533 355.265 105.893 350.044C103.671 343.147 107.386 335.611 114.301 333.548C114.507 333.486 114.715 333.428 114.925 333.374C124.157 330.992 133.636 336.343 136.792 345.382L145.967 371.665C146.509 373.218 146.742 374.863 146.651 376.505C146.561 378.148 146.149 379.757 145.44 381.241C144.731 382.724 143.739 384.052 142.519 385.149C141.299 386.247 139.876 387.092 138.331 387.637C138.178 387.691 138.025 387.742 137.87 387.79Z" fill="#2F2E41"/>
<path opacity="0.2" d="M110.253 362.34C110.253 362.34 121.007 374.446 123.158 381.364L110.253 362.34Z" fill="black"/>
<path d="M68.5429 305.207L64.9436 314.036C64.5794 314.93 64.4135 315.892 64.4574 316.857C64.5013 317.821 64.754 318.764 65.1979 319.621C65.6418 320.477 66.2662 321.225 67.0275 321.814C67.7888 322.403 68.6687 322.818 69.6059 323.03C70.6145 323.258 71.6623 323.245 72.665 322.991C73.6676 322.738 74.5971 322.252 75.3787 321.572C76.1602 320.891 76.772 320.036 77.1648 319.075C77.5575 318.114 77.7203 317.073 77.64 316.038L76.8644 306.034L81.9004 274.912L99.2257 267.679L90.503 256.013L71.2292 267.425L68.5429 305.207Z" fill="#FFB8B8"/>
<path d="M154.56 306.566C142.201 327.433 117.561 335.513 96.4566 319.173C100.169 306.913 112.155 273.03 104.412 271.733C87.9712 278.662 87.9473 262.393 84.8722 254.25L122.297 240.415L142.516 246.035L146.66 247.513C149.357 248.475 151.697 250.244 153.364 252.583C155.031 254.921 155.945 257.716 155.985 260.592C147.492 272.924 141.204 286.079 154.56 306.566Z" fill="#00D1FF"/>
<path d="M159.292 289.704L144.451 277.381L149.398 248.63L169.617 270.248L159.292 289.704Z" fill="#00D1FF"/>
<path d="M405.551 92.1852H403.43V33.7942C403.43 24.8314 399.887 16.2358 393.582 9.8981C387.276 3.56046 378.724 0 369.806 0H246.722C237.805 0 229.252 3.56046 222.947 9.8981C216.641 16.2358 213.099 24.8314 213.099 33.7942V354.133C213.099 363.095 216.641 371.691 222.947 378.029C229.252 384.366 237.805 387.927 246.722 387.927H369.806C378.723 387.927 387.276 384.366 393.581 378.029C399.887 371.691 403.429 363.095 403.429 354.133V133.749H405.551L405.551 92.1852Z" fill="#3F3D56"/>
<path d="M371.163 8.79128H355.097C355.836 10.6121 356.118 12.5876 355.919 14.5439C355.719 16.5002 355.044 18.3772 353.953 20.0094C352.861 21.6416 351.387 22.979 349.661 23.9037C347.934 24.8284 346.007 25.3121 344.051 25.3121H273.538C271.581 25.3119 269.655 24.8282 267.928 23.9035C266.202 22.9788 264.728 21.6416 263.637 20.0096C262.546 18.3776 261.871 16.5009 261.671 14.5449C261.471 12.5889 261.753 10.6135 262.492 8.79288H247.484C240.824 8.79288 234.437 11.4519 229.728 16.1849C225.019 20.918 222.373 27.3373 222.373 34.0309V353.897C222.373 360.591 225.019 367.01 229.728 371.743C234.437 376.477 240.824 379.135 247.484 379.135H371.158C377.818 379.135 384.205 376.477 388.914 371.743C393.623 367.01 396.269 360.591 396.269 353.897V34.0293C396.269 27.3357 393.623 20.9163 388.914 16.1833C384.205 11.4503 377.818 8.79126 371.158 8.79126L371.163 8.79128Z" fill="white"/>
<path d="M309.536 361.26C317.151 361.26 323.324 355.056 323.324 347.402C323.324 339.748 317.151 333.543 309.536 333.543C301.92 333.543 295.747 339.748 295.747 347.402C295.747 355.056 301.92 361.26 309.536 361.26Z" fill="#EEE1D6"/>
<path d="M253.598 219.235C252.294 219.235 251.234 220.452 251.234 221.947C251.234 223.442 252.294 224.659 253.598 224.659H365.044C366.348 224.659 367.408 223.442 367.408 221.947C367.408 220.452 366.348 219.235 365.044 219.235H253.598Z" fill="#EEE1D6"/>
<path d="M253.598 283.199C252.294 283.199 251.234 284.416 251.234 285.911C251.234 287.406 252.294 288.623 253.598 288.623H365.044C366.348 288.623 367.408 287.406 367.408 285.911C367.408 284.416 366.348 283.199 365.044 283.199H253.598Z" fill="#EEE1D6"/>
<path d="M253.598 235.507C252.294 235.507 251.234 236.724 251.234 238.219C251.234 239.714 252.294 240.931 253.598 240.931H301.554C302.857 240.931 303.918 239.714 303.918 238.219C303.918 236.724 302.857 235.507 301.554 235.507H253.598Z" fill="#EEE1D6"/>
<path d="M253.598 251.018C252.294 251.018 251.234 252.234 251.234 253.73C251.234 255.225 252.294 256.442 253.598 256.442H365.044C366.348 256.442 367.408 255.225 367.408 253.73C367.408 252.234 366.348 251.018 365.044 251.018H253.598Z" fill="#EEE1D6"/>
<path d="M253.598 267.29C252.294 267.29 251.234 268.506 251.234 270.002C251.234 271.497 252.294 272.714 253.598 272.714H301.554C302.857 272.714 303.918 271.497 303.918 270.002C303.918 268.506 302.857 267.29 301.554 267.29H253.598Z" fill="#EEE1D6"/>
<path d="M274.637 95.7471H344.012C344.778 95.748 345.513 96.0544 346.055 96.599C346.597 97.1437 346.902 97.8821 346.903 98.6524V171.271C346.902 172.041 346.597 172.78 346.055 173.324C345.513 173.869 344.778 174.175 344.012 174.176H274.637C273.87 174.175 273.136 173.869 272.594 173.324C272.052 172.78 271.747 172.041 271.746 171.271V98.6524C271.747 97.8821 272.052 97.1437 272.594 96.599C273.136 96.0544 273.87 95.748 274.637 95.7471Z" fill="#00D1FF"/>
<path d="M329.23 159.201C329.488 159.202 329.743 159.151 329.982 159.052C330.22 158.953 330.437 158.808 330.62 158.625C330.802 158.442 330.947 158.224 331.046 157.985C331.145 157.746 331.196 157.489 331.196 157.23C331.196 156.97 331.145 156.713 331.047 156.474C330.948 156.234 330.803 156.017 330.621 155.833C330.438 155.65 330.222 155.505 329.983 155.406C329.745 155.307 329.489 155.256 329.231 155.256H289.419C289.161 155.256 288.906 155.306 288.667 155.405C288.429 155.504 288.212 155.649 288.029 155.832C287.847 156.015 287.702 156.233 287.603 156.472C287.504 156.712 287.453 156.968 287.453 157.228C287.453 157.487 287.503 157.744 287.602 157.983C287.701 158.223 287.846 158.44 288.028 158.624C288.21 158.807 288.427 158.952 288.666 159.051C288.904 159.15 289.159 159.201 289.417 159.201H329.23Z" fill="white"/>
<path d="M329.23 147.58C329.75 147.58 330.249 147.372 330.617 147.002C330.985 146.632 331.192 146.13 331.192 145.607C331.192 145.084 330.985 144.583 330.617 144.213C330.249 143.843 329.75 143.635 329.23 143.635H289.419C288.899 143.635 288.399 143.842 288.031 144.212C287.663 144.582 287.456 145.083 287.456 145.606C287.456 146.13 287.662 146.631 288.03 147.001C288.398 147.371 288.897 147.58 289.417 147.58H329.23Z" fill="white"/>
<path d="M309.324 110.722C311.767 110.722 314.156 111.45 316.187 112.815C318.219 114.179 319.802 116.118 320.737 118.387C321.672 120.655 321.916 123.152 321.44 125.56C320.963 127.969 319.787 130.181 318.059 131.917C316.331 133.654 314.13 134.836 311.734 135.315C309.338 135.794 306.854 135.548 304.597 134.609C302.34 133.669 300.411 132.078 299.053 130.036C297.696 127.994 296.971 125.594 296.971 123.138C296.975 119.846 298.278 116.69 300.593 114.363C302.909 112.035 306.049 110.726 309.324 110.722Z" fill="white"/>
<path d="M151.71 236.65H115.038C114.283 236.649 113.56 236.348 113.027 235.812C112.493 235.276 112.193 234.549 112.192 233.791V217.903C112.192 212.257 114.424 206.842 118.396 202.849C122.369 198.857 127.756 196.614 133.374 196.614C138.992 196.614 144.379 198.857 148.352 202.849C152.324 206.842 154.556 212.257 154.556 217.903V233.791C154.555 234.549 154.255 235.276 153.721 235.812C153.188 236.348 152.465 236.65 151.71 236.65Z" fill="#2F2E41"/>
<path d="M151.049 227.572C155.163 220.008 152.398 210.524 144.872 206.389C137.346 202.254 127.91 205.034 123.796 212.598C119.682 220.162 122.448 229.646 129.974 233.781C137.5 237.915 146.936 235.136 151.049 227.572Z" fill="#FFB6B6"/>
<path d="M159.567 219.492H137.142L136.912 216.256L135.763 219.492H132.31L131.854 213.078L129.575 219.492H122.894V219.174C122.899 214.709 124.666 210.429 127.807 207.271C130.948 204.114 135.207 202.338 139.65 202.333H142.811C147.253 202.338 151.512 204.114 154.654 207.271C157.795 210.429 159.562 214.709 159.567 219.174V219.492Z" fill="#2F2E41"/>
<path d="M136.959 239.616C136.79 239.616 136.621 239.601 136.455 239.571L120.035 236.659V209.384H138.111L137.663 209.908C131.437 217.207 136.128 229.041 139.478 235.446C139.725 235.915 139.835 236.444 139.795 236.973C139.756 237.503 139.569 238.01 139.255 238.437C138.992 238.802 138.647 239.099 138.248 239.304C137.849 239.509 137.407 239.616 136.959 239.616Z" fill="#2F2E41"/>
<path d="M191.628 374.282L211.887 374.281H211.888C215.312 374.281 218.595 375.648 221.017 378.082C223.438 380.515 224.798 383.815 224.798 387.257V387.679L191.629 387.68L191.628 374.282Z" fill="#2F2E41"/>
<path d="M471.47 389H0.530337C0.389683 389 0.254789 388.944 0.155332 388.844C0.0558742 388.744 0 388.608 0 388.467C0 388.326 0.0558742 388.19 0.155332 388.09C0.254789 387.99 0.389683 387.934 0.530337 387.934H471.47C471.61 387.934 471.745 387.99 471.845 388.09C471.944 388.19 472 388.326 472 388.467C472 388.608 471.944 388.744 471.845 388.844C471.745 388.944 471.61 389 471.47 389Z" fill="#CACACA"/>
</g>
<defs>
<clipPath id="clip0_47_19">
<rect width="472" height="389" fill="white"/>
</clipPath>
</defs>
</svg>
